<?xml version="1.0"?>
<svg xmlns="http://www.w3.org/2000/svg" xmlns:xlink="http://www.w3.org/1999/xlink" version="1.1" id="Capa_1" x="0px" y="0px" viewBox="0 0 496 496" style="enable-background:new 0 0 496 496;" xml:space="preserve" width="512px" height="512px" class=""><g><g>
	<path style="fill:#708090" d="M456,128H336v-8c0-4.408,3.584-8,8-8h64c13.232,0,24-10.768,24-24v-9.472   c9.288-3.312,16-12.112,16-22.528c0-13.232-10.768-24-24-24s-24,10.768-24,24c0,10.416,6.712,19.216,16,22.528V88   c0,4.408-3.584,8-8,8h-64c-13.232,0-24,10.768-24,24v8h-64V46.528c9.288-3.312,16-12.112,16-22.528c0-13.232-10.768-24-24-24   s-24,10.768-24,24c0,10.416,6.712,19.216,16,22.528V128h-64v-8c0-13.232-10.768-24-24-24H88c-4.416,0-8-3.592-8-8v-9.472   C89.288,75.216,96,66.416,96,56c0-13.232-10.768-24-24-24S48,42.768,48,56c0,10.416,6.712,19.216,16,22.528V88   c0,13.232,10.768,24,24,24h64c4.416,0,8,3.592,8,8v8H40c-22.056,0-40,17.944-40,40v240c0,22.056,17.944,40,40,40h96v32h-32v16h288   v-16h-32v-32h96c22.056,0,40-17.944,40-40V168C496,145.944,478.056,128,456,128z M424,48c4.416,0,8,3.592,8,8s-3.584,8-8,8   s-8-3.592-8-8S419.584,48,424,48z M248,16c4.416,0,8,3.592,8,8s-3.584,8-8,8s-8-3.592-8-8S243.584,16,248,16z M72,48   c4.416,0,8,3.592,8,8s-3.584,8-8,8s-8-3.592-8-8S67.584,48,72,48z M40,144h120v64h16v-64h64v24h16v-24h64v64h16v-64h120   c13.232,0,24,10.768,24,24v216H16V168C16,154.768,26.768,144,40,144z M344,480H152v-32h192V480z M456,432H40   c-13.232,0-24-10.768-24-24v-8h464v8C480,421.232,469.232,432,456,432z" data-original="#3F3A34" class="" data-old_color="#30A6BD"/>
	<path style="fill:#708090" d="M248,320c13.808,0,27.064-5.064,37.336-14.264l-10.672-11.92C267.328,300.384,257.856,304,248,304   c-22.056,0-40-17.944-40-40s17.944-40,40-40s40,17.944,40,40c0,7.912-2.304,15.552-6.664,22.112l13.328,8.856   C300.776,285.784,304,275.072,304,264c0-30.88-25.128-56-56-56s-56,25.12-56,56S217.128,320,248,320z" data-original="#3F3A34" class="" data-old_color="#30A6BD"/>
	<rect x="368" y="256" style="fill:#708090" width="16" height="16" data-original="#3F3A34" class="" data-old_color="#30A6BD"/>
	<rect x="400" y="256" style="fill:#708090" width="16" height="16" data-original="#3F3A34" class="" data-old_color="#30A6BD"/>
	<rect x="432" y="256" style="fill:#708090" width="16" height="16" data-original="#3F3A34" class="" data-old_color="#30A6BD"/>
	<rect x="48" y="256" style="fill:#708090" width="16" height="16" data-original="#3F3A34" class="" data-old_color="#30A6BD"/>
	<rect x="80" y="256" style="fill:#708090" width="16" height="16" data-original="#3F3A34" class="" data-old_color="#30A6BD"/>
	<rect x="112" y="256" style="fill:#708090" width="16" height="16" data-original="#3F3A34" class="" data-old_color="#30A6BD"/>
</g><path style="fill:#ABC4DC" d="M352,296v-64h-22.032c-0.44-1.112-0.896-2.216-1.392-3.328l15.584-15.584l-45.248-45.248  l-15.584,15.584c-1.112-0.496-2.216-0.952-3.328-1.392V160h-64v22.032c-1.112,0.44-2.216,0.896-3.328,1.392l-15.584-15.584  l-45.248,45.248l15.584,15.584c-0.496,1.112-0.952,2.216-1.392,3.328H144v64h22.032c0.44,1.112,0.896,2.216,1.392,3.328  l-15.584,15.584l45.248,45.248l15.584-15.584c1.112,0.496,2.216,0.952,3.328,1.392V368h64v-22.032  c1.112-0.44,2.216-0.896,3.328-1.392l15.584,15.584l45.248-45.248l-15.584-15.584c0.496-1.112,0.952-2.216,1.392-3.328H352z   M248,320c-30.928,0-56-25.072-56-56s25.072-56,56-56s56,25.072,56,56S278.928,320,248,320z" data-original="#FFA64D" class="active-path" data-old_color="#69A3DC"/></g> </svg>
